<?xml version="1.0" encoding="utf-8"?>
<!-- Generator: Adobe Illustrator 23.0.0, SVG Export Plug-In . SVG Version: 6.00 Build 0)  -->
<svg version="1.1" id="Layer_1" xmlns="http://www.w3.org/2000/svg" xmlns:xlink="http://www.w3.org/1999/xlink" x="0px" y="0px"
	 viewBox="0 0 343 600.7" style="enable-background:new 0 0 343 600.7;" xml:space="preserve">
<style type="text/css">
	.st0{fill:#FFFFFF;stroke:#231F20;stroke-miterlimit:10;}
	.st1{stroke:#231F20;stroke-miterlimit:10;}
	.st2{fill:#231F20;stroke:#231F20;stroke-miterlimit:10;}
	.st3{fill:#39C4F3;stroke:#231F20;stroke-miterlimit:10;}
	.st4{fill:#F15F22;stroke:#231F20;stroke-miterlimit:10;}
	.st5{fill:#FEDF55;stroke:#231F20;stroke-miterlimit:10;}
	.st6{fill:#4264AF;stroke:#231F20;stroke-miterlimit:10;}
	.st7{fill:#FDC010;stroke:#231F20;stroke-miterlimit:10;}
	.st8{fill:#5BBA47;stroke:#231F20;stroke-miterlimit:10;}
	.st9{fill:#231F20;}
	.st10{fill:#7D7D7D;}
	.st11{stroke:#000000;stroke-miterlimit:10;}
</style>
<title>Asset 1</title>
<g>
	<g id="Layer_1-2">
		<rect x="4" y="0.5" class="st0" width="35.8" height="35.8"/>
		<rect x="47.1" y="0.5" class="st0" width="35.8" height="35.8"/>
		<rect x="90.2" y="0.5" class="st0" width="35.8" height="35.8"/>
		<rect x="133.3" y="0.5" class="st0" width="35.8" height="35.8"/>
		<rect x="176.5" y="0.5" class="st0" width="35.8" height="35.8"/>
		<rect x="219.6" y="0.5" class="st0" width="35.8" height="35.8"/>
		<rect x="262.7" y="0.5" class="st0" width="35.8" height="35.8"/>
		<rect x="305.8" y="0.5" class="st0" width="35.8" height="35.8"/>
		<rect x="3.3" y="42.7" class="st0" width="35.8" height="35.8"/>
		<rect x="46.4" y="42.7" class="st0" width="35.8" height="35.8"/>
		<rect x="89.5" y="42.7" class="st0" width="35.8" height="35.8"/>
		<rect x="132.6" y="42.7" class="st1" width="35.8" height="35.8"/>
		<rect x="175.7" y="42.7" class="st1" width="35.8" height="35.8"/>
		<rect x="218.8" y="42.7" class="st0" width="35.8" height="35.8"/>
		<rect x="261.9" y="42.7" class="st0" width="35.8" height="35.8"/>
		<rect x="305" y="42.7" class="st0" width="35.8" height="35.8"/>
		<rect x="3.9" y="84.8" class="st0" width="35.8" height="35.8"/>
		<rect x="47" y="84.8" class="st0" width="35.8" height="35.8"/>
		<rect x="90.1" y="84.8" class="st1" width="35.8" height="35.8"/>
		<rect x="133.2" y="84.8" class="st0" width="35.8" height="35.8"/>
		<rect x="176.3" y="84.8" class="st0" width="35.8" height="35.8"/>
		<rect x="219.4" y="84.8" class="st1" width="35.8" height="35.8"/>
		<rect x="262.5" y="84.8" class="st0" width="35.8" height="35.8"/>
		<rect x="305.6" y="84.8" class="st0" width="35.8" height="35.8"/>
		<rect x="3.1" y="127" class="st0" width="35.8" height="35.8"/>
		<rect x="46.2" y="127" class="st0" width="35.8" height="35.8"/>
		<rect x="89.3" y="127" class="st1" width="35.8" height="35.8"/>
		<rect x="132.4" y="127" class="st0" width="35.8" height="35.8"/>
		<rect x="175.6" y="127" class="st0" width="35.8" height="35.8"/>
		<rect x="218.7" y="127" class="st1" width="35.8" height="35.8"/>
		<rect x="261.8" y="127" class="st0" width="35.8" height="35.8"/>
		<rect x="304.9" y="127" class="st0" width="35.8" height="35.8"/>
		<rect x="3.8" y="170.3" class="st0" width="35.8" height="35.8"/>
		<rect x="46.9" y="170.3" class="st0" width="35.8" height="35.8"/>
		<rect x="90" y="170.3" class="st0" width="35.8" height="35.8"/>
		<rect x="133.1" y="170.3" class="st2" width="35.8" height="35.8"/>
		<rect x="176.2" y="170.3" class="st1" width="35.8" height="35.8"/>
		<rect x="219.4" y="170.3" class="st0" width="35.8" height="35.8"/>
		<rect x="262.5" y="170.3" class="st0" width="35.8" height="35.8"/>
		<rect x="305.6" y="170.3" class="st0" width="35.8" height="35.8"/>
		<rect x="3" y="212.5" class="st0" width="35.8" height="35.8"/>
		<rect x="46.1" y="212.5" class="st0" width="35.8" height="35.8"/>
		<rect x="89.2" y="212.5" class="st0" width="35.8" height="35.8"/>
		<rect x="132.3" y="212.5" class="st2" width="35.8" height="35.8"/>
		<rect x="175.5" y="212.5" class="st1" width="35.8" height="35.8"/>
		<rect x="218.6" y="212.5" class="st0" width="35.8" height="35.8"/>
		<rect x="261.7" y="212.5" class="st0" width="35.8" height="35.8"/>
		<rect x="304.8" y="212.5" class="st0" width="35.8" height="35.8"/>
		<rect x="3.6" y="254.7" class="st0" width="35.8" height="35.8"/>
		<rect x="46.7" y="254.7" class="st0" width="35.8" height="35.8"/>
		<rect x="89.8" y="254.7" class="st0" width="35.8" height="35.8"/>
		<rect x="132.9" y="254.7" class="st3" width="35.8" height="35.8"/>
		<rect x="176.1" y="254.7" class="st1" width="35.8" height="35.8"/>
		<rect x="219.2" y="254.7" class="st0" width="35.8" height="35.8"/>
		<rect x="262.3" y="254.7" class="st0" width="35.8" height="35.8"/>
		<rect x="305.4" y="254.7" class="st0" width="35.8" height="35.8"/>
		<rect x="2.9" y="296.8" class="st0" width="35.8" height="35.8"/>
		<rect x="46" y="296.8" class="st0" width="35.8" height="35.8"/>
		<rect x="89.1" y="296.8" class="st0" width="35.8" height="35.8"/>
		<rect x="132.2" y="296.8" class="st4" width="35.8" height="35.8"/>
		<rect x="175.3" y="296.8" class="st1" width="35.8" height="35.8"/>
		<rect x="218.4" y="296.8" class="st2" width="35.8" height="35.8"/>
		<rect x="261.5" y="296.8" class="st0" width="35.8" height="35.8"/>
		<rect x="304.6" y="296.8" class="st0" width="35.8" height="35.8"/>
		<rect x="2.8" y="339.9" class="st0" width="35.8" height="35.8"/>
		<rect x="45.9" y="339.9" class="st0" width="35.8" height="35.8"/>
		<rect x="89" y="339.9" class="st0" width="35.8" height="35.8"/>
		<rect x="132.1" y="339.9" class="st5" width="35.8" height="35.8"/>
		<rect x="175.3" y="339.9" class="st1" width="35.8" height="35.8"/>
		<rect x="218.4" y="339.9" class="st0" width="35.8" height="35.8"/>
		<rect x="261.5" y="339.9" class="st0" width="35.8" height="35.8"/>
		<rect x="304.6" y="339.9" class="st0" width="35.8" height="35.8"/>
		<rect x="2" y="382" class="st0" width="35.8" height="35.8"/>
		<rect x="45.2" y="382" class="st0" width="35.8" height="35.8"/>
		<rect x="88.3" y="382" class="st0" width="35.8" height="35.8"/>
		<rect x="131.4" y="382" class="st6" width="35.8" height="35.8"/>
		<rect x="174.5" y="382" class="st1" width="35.8" height="35.8"/>
		<rect x="217.6" y="382" class="st7" width="35.8" height="35.8"/>
		<rect x="260.7" y="382" class="st0" width="35.8" height="35.8"/>
		<rect x="303.8" y="382" class="st0" width="35.8" height="35.8"/>
		<rect x="2.7" y="424.2" class="st0" width="35.8" height="35.8"/>
		<rect x="45.8" y="424.2" class="st0" width="35.8" height="35.8"/>
		<rect x="88.9" y="424.2" class="st0" width="35.8" height="35.8"/>
		<rect x="132" y="424.2" class="st8" width="35.8" height="35.8"/>
		<rect x="175.1" y="424.2" class="st1" width="35.8" height="35.8"/>
		<rect x="218.2" y="424.2" class="st0" width="35.8" height="35.8"/>
		<rect x="261.3" y="424.2" class="st0" width="35.8" height="35.8"/>
		<rect x="304.4" y="424.2" class="st0" width="35.8" height="35.8"/>
		<rect x="1.9" y="466.4" class="st0" width="35.8" height="35.8"/>
		<rect x="45" y="466.4" class="st0" width="35.8" height="35.8"/>
		<rect x="88.1" y="466.4" class="st0" width="35.8" height="35.8"/>
		<rect x="131.2" y="466.4" class="st0" width="35.8" height="35.8"/>
		<rect x="174.4" y="466.4" class="st0" width="35.8" height="35.8"/>
		<rect x="217.5" y="466.4" class="st0" width="35.8" height="35.8"/>
		<rect x="260.6" y="466.4" class="st0" width="35.8" height="35.8"/>
		<rect x="303.7" y="466.4" class="st0" width="35.8" height="35.8"/>
		<path class="st9" d="M7.3,545.4v14.5H2.8v-38.5h10.6c4.1,0,7.3,1,9.6,3s3.4,4.8,3.4,8.5c0.1,3.4-1.3,6.7-3.8,9
			c-2.5,2.3-5.9,3.5-10.2,3.5L7.3,545.4z M7.3,525.5v15.8H12c3.1,0,5.5-0.7,7.1-2.1c1.7-1.5,2.6-3.7,2.5-6c0-5.1-3-7.6-9-7.6
			L7.3,525.5z"/>
		<path class="st9" d="M53.6,559.9h-20v-38.5h4.5v34.4h15.5V559.9z"/>
		<path class="st9" d="M90.9,559.9h-5l-4.1-10.8H65.5l-3.8,10.8h-5l14.8-38.5H76L90.9,559.9z M80.3,545.1l-6-16.4
			c-0.3-0.8-0.5-1.7-0.6-2.6h-0.1c-0.1,0.9-0.3,1.7-0.6,2.6l-6,16.4H80.3z"/>
		<path class="st9" d="M117.4,521.4l-12.7,24.3v14.2h-4.5v-14.1l-12.4-24.4h5.1l8.6,17.4c0.1,0.2,0.4,1,0.9,2.4h0.1
			c0.3-0.8,0.6-1.6,1-2.4l9-17.4H117.4z"/>
		<path class="st9" d="M150.3,557.3c-3.9,2.2-8.4,3.3-12.9,3.3c-5.5,0-9.9-1.8-13.3-5.3c-3.4-3.5-5.1-8.2-5.1-14.1
			c0-6,1.9-10.9,5.7-14.7c3.8-3.8,9-5.9,14.3-5.7c3.6-0.1,7.2,0.6,10.6,2v5c-3.3-2-7.2-3.1-11.1-3c-4-0.1-7.9,1.5-10.6,4.5
			c-2.8,3-4.1,6.9-4.1,11.6c0,4.9,1.3,8.7,3.8,11.5c2.6,2.8,6,4.2,10.4,4.2c2.7,0.1,5.4-0.6,7.8-1.8v-10.8h-8.4v-4.1h12.9
			L150.3,557.3z"/>
		<path class="st9" d="M186.9,559.9h-5.4l-6.4-10.8c-0.5-0.9-1.1-1.7-1.7-2.6c-0.5-0.6-1.1-1.2-1.7-1.7c-0.6-0.4-1.2-0.8-1.9-1
			c-0.7-0.2-1.5-0.3-2.3-0.3h-3.7v16.4h-4.5v-38.5h11.5c1.6,0,3.1,0.2,4.7,0.6c1.4,0.4,2.6,1.1,3.7,2c1.1,0.9,1.9,2,2.4,3.2
			c1.1,2.6,1.2,5.5,0.3,8.2c-0.4,1.1-1,2.1-1.7,3c-0.8,0.9-1.7,1.6-2.7,2.2c-1.1,0.6-2.3,1.1-3.5,1.4v0.1c0.6,0.3,1.2,0.6,1.7,1
			c0.5,0.4,0.9,0.8,1.4,1.3c0.5,0.5,0.9,1.1,1.3,1.7c0.4,0.7,0.9,1.4,1.4,2.2L186.9,559.9z M163.8,525.5v14h6.1
			c1.1,0,2.1-0.2,3.1-0.5c0.9-0.3,1.8-0.8,2.5-1.5c0.7-0.7,1.3-1.5,1.6-2.3c0.4-1,0.6-2.1,0.6-3.2c0.1-1.8-0.6-3.6-2-4.8
			c-1.7-1.3-3.7-1.9-5.8-1.7L163.8,525.5z"/>
		<path class="st9" d="M207.1,560.6c-5.5,0-9.8-1.8-13.1-5.4c-3.3-3.6-4.9-8.3-4.9-14c0-6.2,1.7-11.1,5-14.8
			c3.3-3.7,7.9-5.5,13.7-5.5c4.9-0.2,9.6,1.8,12.9,5.4c3.3,3.6,4.9,8.2,4.9,14c0,6.3-1.7,11.2-5,14.9S212.7,560.6,207.1,560.6z
			 M207.5,524.8c-3.8-0.1-7.4,1.5-9.9,4.4c-2.5,2.9-3.8,6.8-3.8,11.5c0,4.7,1.2,8.6,3.7,11.5c2.4,2.9,5.9,4.5,9.6,4.3
			c4.2,0,7.6-1.4,10-4.1s3.7-6.6,3.6-11.6c0-5.1-1.2-9-3.5-11.8C214.8,526.2,211.2,524.7,207.5,524.8L207.5,524.8z"/>
		<path class="st9" d="M261.3,544.3c0,10.8-4.9,16.2-14.6,16.2c-9.3,0-14-5.2-14-15.6v-23.6h4.5v23.3c0,7.9,3.3,11.8,10,11.8
			c6.4,0,9.6-3.8,9.6-11.4v-23.7h4.5L261.3,544.3z"/>
		<path class="st9" d="M301.9,559.9h-5.5l-19.8-30.7c-0.5-0.8-0.9-1.6-1.2-2.4h-0.2c0.2,1.8,0.3,3.5,0.2,5.3v27.8h-4.5v-38.5h5.9
			l19.3,30.2c0.8,1.3,1.3,2.1,1.6,2.6h0.2c-0.2-1.9-0.3-3.8-0.3-5.7v-27.1h4.5L301.9,559.9z"/>
		<path class="st9" d="M312,559.9v-38.5h10.6c13.6,0,20.4,6.3,20.4,18.8c0,5.9-1.9,10.7-5.6,14.3s-8.8,5.4-15.1,5.4L312,559.9z
			 M316.5,525.5v30.3h5.8c5,0,9-1.3,11.8-4s4.2-6.5,4.2-11.5c0-9.9-5.2-14.8-15.7-14.8L316.5,525.5z"/>
		<path class="st10" d="M18.2,572.2l-7.8,19.5H7.4L0,572.2h3.4l5,14.2c0.3,0.9,0.6,1.8,0.7,2.7h0.1c0.1-0.9,0.3-1.8,0.6-2.7
			l5.2-14.2L18.2,572.2z"/>
		<path class="st10" d="M23.2,567.3c-0.5,0-1-0.2-1.4-0.6c-0.4-0.4-0.6-0.9-0.6-1.5c0-1.1,0.9-2,2-2c0.5,0,1.1,0.2,1.5,0.6
			c0.4,0.4,0.6,0.9,0.6,1.5c0,0.5-0.2,1.1-0.6,1.4C24.2,567.1,23.7,567.3,23.2,567.3z M24.7,591.7h-3.2v-19.5h3.2V591.7z"/>
		<path class="st10" d="M41.2,575.4c-0.7-0.5-1.5-0.7-2.4-0.6c-1.4,0-2.6,0.7-3.3,1.9c-1,1.5-1.4,3.3-1.3,5.1v9.9H31v-19.5h3.1v4
			h0.1c0.4-1.2,1-2.3,2-3.2c0.9-0.7,1.9-1.2,3.1-1.2c0.6,0,1.3,0.1,1.9,0.3L41.2,575.4z"/>
		<path class="st10" d="M54.7,591.6c-0.9,0.4-1.9,0.7-2.9,0.6c-3.4,0-5.1-1.9-5.1-5.7v-11.5h-3.3v-2.7h3.4v-4.8l3.1-1v5.8h4.9v2.7
			h-4.9v11c-0.1,1,0.1,2,0.7,2.8c0.6,0.6,1.4,0.9,2.2,0.8c0.7,0,1.4-0.2,2-0.7L54.7,591.6z"/>
		<path class="st10" d="M74.7,591.7h-3.2v-3.1h-0.1c-1.1,2.3-3.5,3.6-6,3.5c-4.7,0-7-2.8-7-8.3v-11.6h3.1v11.2
			c0,4.1,1.6,6.2,4.7,6.2c1.4,0,2.8-0.6,3.8-1.7c1-1.2,1.6-2.8,1.5-4.4v-11.2h3.2V591.7z"/>
		<path class="st10" d="M94.9,591.7h-3.1v-3h-0.1c-1.2,2.2-3.5,3.6-6,3.5c-1.7,0.1-3.3-0.5-4.6-1.5c-1.1-1.1-1.7-2.6-1.7-4.1
			c0-3.6,2.1-5.8,6.4-6.4l5.8-0.8c0-3.3-1.3-5-4-5c-2.3,0-4.6,0.9-6.4,2.4v-3.2c2-1.2,4.3-1.9,6.6-1.8c4.6,0,6.9,2.4,6.9,7.3
			L94.9,591.7z M91.8,581.9l-4.7,0.6c-1.2,0.1-2.3,0.5-3.3,1.1c-0.8,0.7-1.2,1.7-1.1,2.7c0,0.9,0.3,1.7,1,2.3c0.8,0.6,1.7,1,2.7,0.9
			c1.5,0.1,2.9-0.5,3.9-1.6c1-1.1,1.6-2.6,1.5-4.1L91.8,581.9z"/>
		<path class="st10" d="M104,591.7h-3.1v-28.9h3.1V591.7z"/>
		<g>
			<g>
				<path class="st11" d="M131.8,591.8h-2.6v-10.2h-11.6v10.2h-2.6v-22.4h2.6v9.8h11.6v-9.8h2.6V591.8z"/>
				<path class="st11" d="M136.6,590.8v-3.1c0.4,0.3,0.8,0.6,1.3,0.8c0.5,0.3,1,0.5,1.6,0.6s1.1,0.3,1.6,0.4
					c0.6,0.1,1.1,0.1,1.5,0.1c1.6,0,2.8-0.3,3.6-0.9c0.8-0.6,1.2-1.5,1.2-2.6c0-0.6-0.1-1.1-0.4-1.6c-0.3-0.4-0.6-0.9-1.1-1.2
					c-0.5-0.4-1-0.7-1.7-1.1c-0.6-0.3-1.3-0.7-2.1-1.1c-0.8-0.4-1.5-0.8-2.2-1.2c-0.7-0.4-1.3-0.9-1.8-1.3c-0.5-0.5-0.9-1-1.2-1.7
					c-0.3-0.6-0.4-1.3-0.4-2.2c0-1,0.2-1.9,0.7-2.7c0.4-0.8,1-1.4,1.8-1.9c0.7-0.5,1.6-0.9,2.5-1.1c0.9-0.2,1.9-0.4,2.9-0.4
					c2.2,0,3.8,0.3,4.8,0.8v3c-1.3-0.9-3-1.4-5.1-1.4c-0.6,0-1.1,0.1-1.7,0.2c-0.6,0.1-1.1,0.3-1.5,0.6c-0.4,0.3-0.8,0.6-1.1,1
					c-0.3,0.4-0.4,0.9-0.4,1.6c0,0.6,0.1,1.1,0.3,1.5c0.2,0.4,0.5,0.8,0.9,1.1c0.4,0.3,0.9,0.7,1.5,1c0.6,0.3,1.3,0.7,2.1,1.1
					c0.8,0.4,1.6,0.8,2.3,1.3s1.3,0.9,1.9,1.5c0.5,0.5,1,1.1,1.3,1.8c0.3,0.6,0.5,1.4,0.5,2.2c0,1.1-0.2,2-0.6,2.8
					c-0.4,0.8-1,1.4-1.8,1.9c-0.7,0.5-1.6,0.8-2.5,1c-1,0.2-2,0.3-3,0.3c-0.4,0-0.8,0-1.3-0.1c-0.5-0.1-1.1-0.1-1.6-0.3
					c-0.5-0.1-1.1-0.2-1.5-0.4C137.3,591.2,136.9,591,136.6,590.8z"/>
				<path class="st11" d="M177.5,591.8h-2.6v-15c0-1.2,0.1-2.6,0.2-4.4H175c-0.3,1-0.5,1.7-0.7,2.2l-7.7,17.2h-1.3l-7.6-17.1
					c-0.2-0.5-0.4-1.3-0.7-2.3h-0.1c0.1,0.9,0.1,2.4,0.1,4.4v15h-2.5v-22.4h3.5L165,585c0.5,1.2,0.9,2.1,1,2.7h0.1
					c0.4-1.2,0.8-2.1,1.1-2.8l7-15.6h3.3V591.8z"/>
				<path d="M201.4,591.8H191v-19.6h10v2.1h-7.7v6.5h7.1v2.1h-7.1v6.9h8.1V591.8z"/>
				<path d="M216.5,591.8h-2.2v-8c0-3-1.1-4.5-3.3-4.5c-1.1,0-2,0.4-2.8,1.3s-1.1,1.9-1.1,3.2v8h-2.2v-14h2.2v2.3h0.1
					c1.1-1.8,2.6-2.7,4.6-2.7c1.5,0,2.7,0.5,3.5,1.5s1.2,2.4,1.2,4.3V591.8z"/>
				<path d="M231.7,577.8l-5.6,14h-2.2l-5.3-14h2.5l3.6,10.2c0.3,0.7,0.4,1.4,0.5,2h0.1c0.1-0.7,0.2-1.3,0.4-1.9l3.7-10.2H231.7z"/>
				<path d="M235.2,574.2c-0.4,0-0.7-0.1-1-0.4s-0.4-0.6-0.4-1s0.1-0.8,0.4-1s0.6-0.4,1-0.4c0.4,0,0.8,0.1,1,0.4s0.4,0.6,0.4,1
					c0,0.4-0.1,0.7-0.4,1S235.6,574.2,235.2,574.2z M236.3,591.8h-2.2v-14h2.2V591.8z"/>
				<path d="M248.2,580c-0.4-0.3-1-0.5-1.7-0.5c-1,0-1.8,0.5-2.4,1.4s-1,2.1-1,3.7v7.1h-2.2v-14h2.2v2.9h0.1c0.3-1,0.8-1.8,1.5-2.3
					s1.4-0.8,2.2-0.8c0.6,0,1,0.1,1.3,0.2V580z"/>
				<path d="M256.5,592.1c-2.1,0-3.7-0.7-5-2s-1.9-3-1.9-5.2c0-2.4,0.6-4.2,1.9-5.5s3-2,5.2-2c2.1,0,3.7,0.6,4.9,1.9
					s1.8,3.1,1.8,5.3c0,2.2-0.6,4-1.9,5.4S258.6,592.1,256.5,592.1z M256.6,579.3c-1.4,0-2.6,0.5-3.4,1.5s-1.3,2.3-1.3,4.1
					c0,1.7,0.4,3,1.3,3.9s2,1.4,3.4,1.4c1.4,0,2.6-0.5,3.3-1.4s1.2-2.3,1.2-4c0-1.8-0.4-3.1-1.2-4S258.1,579.3,256.6,579.3z"/>
				<path d="M278.6,591.8h-2.2v-8c0-3-1.1-4.5-3.3-4.5c-1.1,0-2,0.4-2.8,1.3s-1.1,1.9-1.1,3.2v8H267v-14h2.2v2.3h0.1
					c1.1-1.8,2.6-2.7,4.6-2.7c1.5,0,2.7,0.5,3.5,1.5s1.2,2.4,1.2,4.3V591.8z"/>
				<path d="M302.7,591.8h-2.2v-8c0-1.5-0.2-2.7-0.7-3.4s-1.3-1-2.4-1c-1,0-1.8,0.4-2.4,1.3s-1,1.9-1,3.1v8h-2.2v-8.3
					c0-2.8-1.1-4.1-3.2-4.1c-1,0-1.8,0.4-2.4,1.2s-1,1.9-1,3.2v8h-2.2v-14h2.2v2.2h0.1c1-1.7,2.4-2.5,4.3-2.5c1,0,1.8,0.3,2.5,0.8
					s1.2,1.2,1.5,2.1c1-1.9,2.6-2.9,4.6-2.9c3.1,0,4.6,1.9,4.6,5.7V591.8z"/>
				<path d="M318.2,585.3h-9.9c0,1.6,0.5,2.8,1.3,3.6s1.9,1.3,3.3,1.3c1.6,0,3-0.5,4.3-1.6v2.1c-1.2,0.9-2.9,1.3-4.9,1.3
					c-2,0-3.5-0.6-4.7-1.9s-1.7-3.1-1.7-5.4c0-2.2,0.6-4,1.9-5.3s2.8-2.1,4.6-2.1s3.2,0.6,4.3,1.8s1.5,2.8,1.5,4.9V585.3z
					 M315.9,583.4c0-1.3-0.3-2.3-0.9-3s-1.5-1.1-2.6-1.1c-1.1,0-2,0.4-2.7,1.1s-1.2,1.7-1.4,3H315.9z"/>
				<path d="M333.2,591.8H331v-8c0-3-1.1-4.5-3.3-4.5c-1.1,0-2,0.4-2.8,1.3s-1.1,1.9-1.1,3.2v8h-2.2v-14h2.2v2.3h0.1
					c1.1-1.8,2.6-2.7,4.6-2.7c1.5,0,2.7,0.5,3.5,1.5s1.2,2.4,1.2,4.3V591.8z"/>
				<path d="M344,591.6c-0.5,0.3-1.2,0.4-2.1,0.4c-2.5,0-3.7-1.4-3.7-4.1v-8.3h-2.4v-1.9h2.4v-3.4l2.2-0.7v4.1h3.5v1.9h-3.5v7.9
					c0,0.9,0.2,1.6,0.5,2s0.8,0.6,1.6,0.6c0.6,0,1.1-0.2,1.5-0.5V591.6z"/>
			</g>
		</g>
		<g>
			<g>
			</g>
		</g>
	</g>
</g>
</svg>
