<svg xmlns="http://www.w3.org/2000/svg" viewBox="0 0 343.01 600.72"><defs><style>.cls-1{fill:#fff;}.cls-1,.cls-2,.cls-3,.cls-4,.cls-5,.cls-6,.cls-7,.cls-8,.cls-9{stroke:#231f20;stroke-miterlimit:10;}.cls-10,.cls-3{fill:#231f20;}.cls-4{fill:#39c4f3;}.cls-5{fill:#f15f22;}.cls-6{fill:#fedf55;}.cls-7{fill:#4264af;}.cls-8{fill:#fdc010;}.cls-9{fill:#5bba47;}.cls-11{fill:#7d7d7d;}</style></defs><title>Asset 1</title><g id="Layer_2" data-name="Layer 2"><g id="Layer_1-2" data-name="Layer 1"><rect class="cls-1" x="4.02" y="0.5" width="35.81" height="35.81"/><rect class="cls-1" x="47.13" y="0.5" width="35.81" height="35.81"/><rect class="cls-1" x="90.23" y="0.5" width="35.81" height="35.81"/><rect class="cls-1" x="133.34" y="0.5" width="35.81" height="35.81"/><rect class="cls-1" x="176.48" y="0.5" width="35.81" height="35.81"/><rect class="cls-1" x="219.59" y="0.5" width="35.81" height="35.81"/><rect class="cls-1" x="262.69" y="0.5" width="35.81" height="35.81"/><rect class="cls-1" x="305.8" y="0.5" width="35.81" height="35.81"/><rect class="cls-1" x="3.25" y="42.67" width="35.81" height="35.81"/><rect class="cls-1" x="46.36" y="42.67" width="35.81" height="35.81"/><rect class="cls-1" x="89.46" y="42.67" width="35.81" height="35.81"/><rect class="cls-2" x="132.57" y="42.67" width="35.81" height="35.81"/><rect class="cls-2" x="175.71" y="42.67" width="35.81" height="35.81"/><rect class="cls-1" x="218.81" y="42.67" width="35.81" height="35.81"/><rect class="cls-1" x="261.92" y="42.67" width="35.81" height="35.81"/><rect class="cls-1" x="305.03" y="42.67" width="35.81" height="35.81"/><rect class="cls-1" x="3.86" y="84.84" width="35.81" height="35.81"/><rect class="cls-1" x="46.97" y="84.84" width="35.81" height="35.81"/><rect class="cls-2" x="90.08" y="84.84" width="35.81" height="35.81"/><rect class="cls-1" x="133.18" y="84.84" width="35.81" height="35.81"/><rect class="cls-1" x="176.32" y="84.84" width="35.81" height="35.81"/><rect class="cls-2" x="219.43" y="84.84" width="35.81" height="35.81"/><rect class="cls-1" x="262.54" y="84.84" width="35.81" height="35.81"/><rect class="cls-1" x="305.64" y="84.84" width="35.81" height="35.81"/><rect class="cls-1" x="3.09" y="127.01" width="35.81" height="35.81"/><rect class="cls-1" x="46.2" y="127.01" width="35.81" height="35.81"/><rect class="cls-2" x="89.31" y="127.01" width="35.81" height="35.81"/><rect class="cls-1" x="132.41" y="127.01" width="35.81" height="35.81"/><rect class="cls-1" x="175.55" y="127.01" width="35.81" height="35.81"/><rect class="cls-2" x="218.66" y="127.01" width="35.81" height="35.81"/><rect class="cls-1" x="261.77" y="127.01" width="35.81" height="35.81"/><rect class="cls-1" x="304.87" y="127.01" width="35.81" height="35.81"/><rect class="cls-1" x="3.79" y="170.34" width="35.81" height="35.81"/><rect class="cls-1" x="46.89" y="170.34" width="35.81" height="35.81"/><rect class="cls-1" x="90" y="170.34" width="35.81" height="35.81"/><rect class="cls-3" x="133.11" y="170.34" width="35.81" height="35.81"/><rect class="cls-2" x="176.24" y="170.34" width="35.81" height="35.81"/><rect class="cls-1" x="219.35" y="170.34" width="35.81" height="35.81"/><rect class="cls-1" x="262.46" y="170.34" width="35.81" height="35.81"/><rect class="cls-1" x="305.57" y="170.34" width="35.81" height="35.81"/><rect class="cls-1" x="3.02" y="212.51" width="35.81" height="35.81"/><rect class="cls-1" x="46.12" y="212.51" width="35.81" height="35.81"/><rect class="cls-1" x="89.23" y="212.51" width="35.81" height="35.81"/><rect class="cls-3" x="132.34" y="212.51" width="35.81" height="35.81"/><rect class="cls-2" x="175.47" y="212.51" width="35.81" height="35.81"/><rect class="cls-1" x="218.58" y="212.51" width="35.81" height="35.81"/><rect class="cls-1" x="261.69" y="212.51" width="35.81" height="35.81"/><rect class="cls-1" x="304.8" y="212.51" width="35.81" height="35.81"/><rect class="cls-1" x="3.63" y="254.68" width="35.81" height="35.81"/><rect class="cls-1" x="46.74" y="254.68" width="35.81" height="35.81"/><rect class="cls-1" x="89.84" y="254.68" width="35.81" height="35.81"/><rect class="cls-4" x="132.95" y="254.68" width="35.81" height="35.81"/><rect class="cls-2" x="176.09" y="254.68" width="35.81" height="35.81"/><rect class="cls-1" x="219.2" y="254.68" width="35.81" height="35.81"/><rect class="cls-1" x="262.3" y="254.68" width="35.81" height="35.81"/><rect class="cls-1" x="305.41" y="254.68" width="35.81" height="35.81"/><rect class="cls-1" x="2.86" y="296.85" width="35.81" height="35.81"/><rect class="cls-1" x="45.97" y="296.85" width="35.81" height="35.81"/><rect class="cls-1" x="89.07" y="296.85" width="35.81" height="35.81"/><rect class="cls-5" x="132.18" y="296.85" width="35.81" height="35.81"/><rect class="cls-2" x="175.32" y="296.85" width="35.81" height="35.81"/><rect class="cls-3" x="218.43" y="296.85" width="35.81" height="35.81"/><rect class="cls-1" x="261.53" y="296.85" width="35.81" height="35.81"/><rect class="cls-1" x="304.64" y="296.85" width="35.81" height="35.81"/><rect class="cls-1" x="2.82" y="339.86" width="35.81" height="35.81"/><rect class="cls-1" x="45.93" y="339.86" width="35.81" height="35.81"/><rect class="cls-1" x="89.03" y="339.86" width="35.81" height="35.81"/><rect class="cls-6" x="132.14" y="339.86" width="35.81" height="35.81"/><rect class="cls-2" x="175.28" y="339.86" width="35.81" height="35.81"/><rect class="cls-1" x="218.39" y="339.86" width="35.81" height="35.81"/><rect class="cls-1" x="261.49" y="339.86" width="35.81" height="35.81"/><rect class="cls-1" x="304.6" y="339.86" width="35.81" height="35.81"/><rect class="cls-1" x="2.05" y="382.03" width="35.81" height="35.81"/><rect class="cls-1" x="45.16" y="382.03" width="35.81" height="35.81"/><rect class="cls-1" x="88.26" y="382.03" width="35.81" height="35.81"/><rect class="cls-7" x="131.37" y="382.03" width="35.81" height="35.81"/><rect class="cls-2" x="174.51" y="382.03" width="35.81" height="35.81"/><rect class="cls-8" x="217.61" y="382.03" width="35.81" height="35.81"/><rect class="cls-1" x="260.72" y="382.03" width="35.81" height="35.81"/><rect class="cls-1" x="303.83" y="382.03" width="35.81" height="35.81"/><rect class="cls-1" x="2.66" y="424.2" width="35.81" height="35.81"/><rect class="cls-1" x="45.77" y="424.2" width="35.81" height="35.81"/><rect class="cls-1" x="88.88" y="424.2" width="35.81" height="35.81"/><rect class="cls-9" x="131.98" y="424.2" width="35.81" height="35.81"/><rect class="cls-2" x="175.12" y="424.2" width="35.81" height="35.81"/><rect class="cls-1" x="218.23" y="424.2" width="35.81" height="35.81"/><rect class="cls-1" x="261.34" y="424.2" width="35.81" height="35.81"/><rect class="cls-1" x="304.44" y="424.2" width="35.81" height="35.81"/><rect class="cls-1" x="1.89" y="466.37" width="35.81" height="35.81"/><rect class="cls-1" x="45" y="466.37" width="35.81" height="35.81"/><rect class="cls-1" x="88.11" y="466.37" width="35.81" height="35.81"/><rect class="cls-1" x="131.21" y="466.37" width="35.81" height="35.81"/><rect class="cls-1" x="174.35" y="466.37" width="35.81" height="35.81"/><rect class="cls-1" x="217.46" y="466.37" width="35.81" height="35.81"/><rect class="cls-1" x="260.57" y="466.37" width="35.81" height="35.81"/><rect class="cls-1" x="303.67" y="466.37" width="35.81" height="35.81"/><path class="cls-10" d="M9.56,545.36v14.55H5.05V521.4H15.63q6.18,0,9.57,3t3.4,8.49a11.7,11.7,0,0,1-3.77,9q-3.78,3.48-10.19,3.49Zm0-19.87v15.79h4.73c3.11,0,5.49-.72,7.13-2.14a7.54,7.54,0,0,0,2.45-6q0-7.62-9-7.62Z" transform="translate(-2.27)"/><path class="cls-10" d="M55.83,559.91h-20V521.4h4.51v34.43H55.83Z" transform="translate(-2.27)"/><path class="cls-10" d="M93.13,559.91h-5l-4.08-10.79H67.73l-3.84,10.79h-5L73.64,521.4h4.67ZM82.58,545.06l-6-16.41a14.48,14.48,0,0,1-.59-2.57h-.11a14.47,14.47,0,0,1-.62,2.57l-6,16.41Z" transform="translate(-2.27)"/><path class="cls-10" d="M119.64,521.4l-12.7,24.28v14.23h-4.51V545.79L90.05,521.4h5.13l8.62,17.41c.1.21.42,1,.94,2.36h.08a14,14,0,0,1,1-2.36l9-17.41Z" transform="translate(-2.27)"/><path class="cls-10" d="M152.59,557.28a25.67,25.67,0,0,1-12.89,3.28q-8.23,0-13.33-5.32t-5.09-14.07q0-8.94,5.65-14.68a19.29,19.29,0,0,1,14.33-5.73,24.35,24.35,0,0,1,10.55,2v5a20.24,20.24,0,0,0-11.06-3,13.83,13.83,0,0,0-10.61,4.46Q126,533.76,126,540.85q0,7.3,3.84,11.48t10.42,4.17a16.09,16.09,0,0,0,7.81-1.8V543.91h-8.43v-4.08h12.94Z" transform="translate(-2.27)"/><path class="cls-10" d="M189.14,559.91h-5.37l-6.44-10.79a24.82,24.82,0,0,0-1.72-2.57,10.39,10.39,0,0,0-1.71-1.73,5.94,5.94,0,0,0-1.88-1,7.94,7.94,0,0,0-2.27-.31h-3.7v16.38h-4.51V521.4H173a16.41,16.41,0,0,1,4.66.63A10.65,10.65,0,0,1,181.4,524a8.87,8.87,0,0,1,2.45,3.2,11.66,11.66,0,0,1,.28,8.19,9.67,9.67,0,0,1-1.71,3,10.5,10.5,0,0,1-2.69,2.24A13.61,13.61,0,0,1,176.2,542v.11a8,8,0,0,1,1.68,1,9.12,9.12,0,0,1,1.35,1.3,17.51,17.51,0,0,1,1.28,1.7q.63,1,1.41,2.22Zm-23.09-34.42v14h6.12a9.3,9.3,0,0,0,3.13-.51,7.3,7.3,0,0,0,2.48-1.46,6.64,6.64,0,0,0,1.64-2.34A7.89,7.89,0,0,0,180,532a6,6,0,0,0-2-4.82,8.56,8.56,0,0,0-5.79-1.73Z" transform="translate(-2.27)"/><path class="cls-10" d="M209.42,560.56q-8.19,0-13.12-5.4t-4.93-14q0-9.3,5-14.83t13.67-5.53a16.52,16.52,0,0,1,12.85,5.37q4.88,5.37,4.88,14,0,9.42-5,14.9T209.42,560.56Zm.32-35.72a12.39,12.39,0,0,0-9.85,4.38q-3.79,4.38-3.79,11.49t3.69,11.46a12,12,0,0,0,9.63,4.33q6.33,0,10-4.13t3.65-11.58q0-7.62-3.54-11.79A12.19,12.19,0,0,0,209.74,524.84Z" transform="translate(-2.27)"/><path class="cls-10" d="M263.53,544.34q0,16.21-14.63,16.22-14,0-14-15.6V521.4h4.51v23.26q0,11.85,10,11.84,9.64,0,9.64-11.44V521.4h4.51Z" transform="translate(-2.27)"/><path class="cls-10" d="M304.19,559.91h-5.53l-19.82-30.69a12.82,12.82,0,0,1-1.23-2.42h-.17a38.25,38.25,0,0,1,.22,5.29v27.82h-4.51V521.4H279l19.28,30.22c.81,1.25,1.33,2.11,1.56,2.57H300a40.4,40.4,0,0,1-.27-5.66V521.4h4.51Z" transform="translate(-2.27)"/><path class="cls-10" d="M314.29,559.91V521.4h10.63q20.37,0,20.36,18.78,0,8.91-5.65,14.32t-15.13,5.41Zm4.51-34.42v30.34h5.75q7.57,0,11.79-4.05t4.21-11.5q0-14.79-15.73-14.79Z" transform="translate(-2.27)"/><path class="cls-11" d="M20.49,572.25l-7.77,19.5H9.66l-7.39-19.5H5.69l5,14.17a13.27,13.27,0,0,1,.68,2.72h.08a12.43,12.43,0,0,1,.61-2.65l5.18-14.24Z" transform="translate(-2.27)"/><path class="cls-11" d="M25.44,567.3a2,2,0,0,1-1.43-.57,2,2,0,0,1-.59-1.45,2,2,0,0,1,2-2,2.06,2.06,0,0,1,1.46.58,2,2,0,0,1,.6,1.46,1.93,1.93,0,0,1-.6,1.43A2,2,0,0,1,25.44,567.3ZM27,591.75H23.84v-19.5H27Z" transform="translate(-2.27)"/><path class="cls-11" d="M43.46,575.41a3.83,3.83,0,0,0-2.36-.63,4,4,0,0,0-3.35,1.89,8.73,8.73,0,0,0-1.34,5.14v9.94H33.29v-19.5h3.12v4h.08a6.82,6.82,0,0,1,2-3.21,4.66,4.66,0,0,1,3.07-1.15,5.36,5.36,0,0,1,1.87.26Z" transform="translate(-2.27)"/><path class="cls-11" d="M57,591.56a6,6,0,0,1-2.92.61c-3.41,0-5.12-1.91-5.12-5.71V574.92H45.63v-2.67H49v-4.76l3.12-1v5.77H57v2.67H52.1v11a4.51,4.51,0,0,0,.67,2.8,2.65,2.65,0,0,0,2.21.84,3.27,3.27,0,0,0,2-.65Z" transform="translate(-2.27)"/><path class="cls-11" d="M77,591.75H73.83v-3.08h-.08a6.4,6.4,0,0,1-6,3.54q-7,0-7-8.31V572.25h3.1v11.16q0,6.17,4.72,6.17a4.74,4.74,0,0,0,3.76-1.69,6.4,6.4,0,0,0,1.48-4.4V572.25H77Z" transform="translate(-2.27)"/><path class="cls-11" d="M97.21,591.75H94.09v-3H94a6.54,6.54,0,0,1-6,3.51,6.38,6.38,0,0,1-4.56-1.55,5.32,5.32,0,0,1-1.65-4.09q0-5.46,6.44-6.36l5.84-.82q0-5-4-5a9.61,9.61,0,0,0-6.36,2.4v-3.2a12.1,12.1,0,0,1,6.63-1.83q6.87,0,6.87,7.28Zm-3.12-9.86-4.7.64a7.67,7.67,0,0,0-3.28,1.08,3.1,3.1,0,0,0-1.1,2.73,3,3,0,0,0,1,2.33,3.9,3.9,0,0,0,2.71.91A5,5,0,0,0,92.58,588a5.8,5.8,0,0,0,1.51-4.12Z" transform="translate(-2.27)"/><path class="cls-11" d="M106.22,591.75H103.1V562.88h3.12Z" transform="translate(-2.27)"/><path class="cls-11" d="M126.43,588.93h-.08v11.79h-3.12V572.25h3.12v3.43h.08a7.38,7.38,0,0,1,6.74-3.89,7.16,7.16,0,0,1,5.88,2.62,10.86,10.86,0,0,1,2.12,7,12.11,12.11,0,0,1-2.38,7.83,7.92,7.92,0,0,1-6.52,3A6.51,6.51,0,0,1,126.43,588.93Zm-.08-7.86v2.72a5.77,5.77,0,0,0,1.57,4.1,5.6,5.6,0,0,0,8.44-.48,10,10,0,0,0,1.61-6,7.81,7.81,0,0,0-1.51-5.1,5,5,0,0,0-4.07-1.85,5.5,5.5,0,0,0-4.38,1.9A6.91,6.91,0,0,0,126.35,581.07Z" transform="translate(-2.27)"/><path class="cls-11" d="M162.34,591.75H158l-8.61-9.37h-.07v9.37h-3.12V562.88h3.12v18.3h.07l8.19-8.93h4.1l-9,9.41Z" transform="translate(-2.27)"/><path class="cls-11" d="M178.05,590.86a10.15,10.15,0,0,1-5.33,1.35,8.83,8.83,0,0,1-6.73-2.72,9.81,9.81,0,0,1-2.56-7,10.82,10.82,0,0,1,2.76-7.74,9.66,9.66,0,0,1,7.37-2.93,10.2,10.2,0,0,1,4.53,1v3.19a8,8,0,0,0-4.65-1.52,6.27,6.27,0,0,0-4.9,2.14,8.12,8.12,0,0,0-1.91,5.63,7.74,7.74,0,0,0,1.8,5.41,6.19,6.19,0,0,0,4.82,2,7.84,7.84,0,0,0,4.8-1.7Z" transform="translate(-2.27)"/><path class="cls-11" d="M181.59,591.05v-3.36a9.26,9.26,0,0,0,5.62,1.89c2.74,0,4.12-.91,4.12-2.74a2.38,2.38,0,0,0-.36-1.33,3.46,3.46,0,0,0-.95-1,7.17,7.17,0,0,0-1.41-.75l-1.74-.7a22.77,22.77,0,0,1-2.28-1,7,7,0,0,1-1.63-1.18,4.36,4.36,0,0,1-1-1.5,5.12,5.12,0,0,1-.34-2,4.68,4.68,0,0,1,.63-2.43,5.67,5.67,0,0,1,1.68-1.77,8,8,0,0,1,2.39-1.08,10.63,10.63,0,0,1,2.77-.36,11.23,11.23,0,0,1,4.53.88v3.16a8.85,8.85,0,0,0-4.95-1.41,5.88,5.88,0,0,0-1.58.2,3.76,3.76,0,0,0-1.21.56,2.48,2.48,0,0,0-.78.87,2.23,2.23,0,0,0-.28,1.11,2.61,2.61,0,0,0,.28,1.28,2.67,2.67,0,0,0,.81.91,6,6,0,0,0,1.29.73l1.73.7a23.79,23.79,0,0,1,2.33,1A8,8,0,0,1,193,583a4.65,4.65,0,0,1,1.11,1.51,5,5,0,0,1,.39,2,4.86,4.86,0,0,1-.63,2.52,5.55,5.55,0,0,1-1.71,1.77,7.62,7.62,0,0,1-2.45,1,12.1,12.1,0,0,1-2.92.35A11.16,11.16,0,0,1,181.59,591.05Z" transform="translate(-2.27)"/><path class="cls-11" d="M210,591.75h-3.12V568.16a8.09,8.09,0,0,1-1.06.82,15.69,15.69,0,0,1-1.56.93c-.58.3-1.19.59-1.83.85a12.58,12.58,0,0,1-1.88.63v-3.16a18,18,0,0,0,2.18-.77,24.76,24.76,0,0,0,2.27-1.08q1.11-.6,2.1-1.26a16.72,16.72,0,0,0,1.72-1.29H210Z" transform="translate(-2.27)"/><path class="cls-11" d="M231,591.75h-3.12V568.16a6.92,6.92,0,0,1-1.06.82,15.69,15.69,0,0,1-1.56.93c-.58.3-1.19.59-1.83.85a12.47,12.47,0,0,1-1.87.63v-3.16a19.22,19.22,0,0,0,2.18-.77,24.59,24.59,0,0,0,2.26-1.08c.75-.4,1.45-.82,2.11-1.26a16.51,16.51,0,0,0,1.71-1.29H231Z" transform="translate(-2.27)"/><path class="cls-11" d="M261.1,591.56a6,6,0,0,1-2.92.61c-3.41,0-5.12-1.91-5.12-5.71V574.92h-3.35v-2.67h3.35v-4.76l3.12-1v5.77h4.92v2.67h-4.92v11a4.58,4.58,0,0,0,.67,2.8,2.66,2.66,0,0,0,2.21.84,3.23,3.23,0,0,0,2-.65Z" transform="translate(-2.27)"/><path class="cls-11" d="M273.12,592.21a9,9,0,0,1-6.91-2.74,10.1,10.1,0,0,1-2.58-7.24,10.57,10.57,0,0,1,2.69-7.68,9.65,9.65,0,0,1,7.25-2.76,8.75,8.75,0,0,1,6.81,2.69,10.64,10.64,0,0,1,2.45,7.44,10.48,10.48,0,0,1-2.64,7.48A9.26,9.26,0,0,1,273.12,592.21Zm.22-17.79a5.94,5.94,0,0,0-4.76,2.05,8.42,8.42,0,0,0-1.75,5.64,8,8,0,0,0,1.77,5.47,6,6,0,0,0,4.74,2,5.71,5.71,0,0,0,4.66-2,8.55,8.55,0,0,0,1.63-5.58A8.69,8.69,0,0,0,278,576.4,5.7,5.7,0,0,0,273.34,574.42Z" transform="translate(-2.27)"/><path class="cls-11" d="M304,591.75h-4.38l-8.6-9.37h-.08v9.37h-3.12V562.88h3.12v18.3H291l8.18-8.93h4.1l-9.05,9.41Z" transform="translate(-2.27)"/><path class="cls-11" d="M322.09,582.78H308.33a7.28,7.28,0,0,0,1.75,5,6,6,0,0,0,4.61,1.77,9.56,9.56,0,0,0,6.05-2.17v2.93a11.27,11.27,0,0,1-6.8,1.87,8.24,8.24,0,0,1-6.49-2.66q-2.35-2.65-2.36-7.47a10.66,10.66,0,0,1,2.58-7.42,8.27,8.27,0,0,1,6.41-2.87,7.34,7.34,0,0,1,5.92,2.48,10.35,10.35,0,0,1,2.09,6.87Zm-3.2-2.65a6.3,6.3,0,0,0-1.3-4.2,4.43,4.43,0,0,0-3.57-1.51,5.06,5.06,0,0,0-3.75,1.58,7.18,7.18,0,0,0-1.91,4.13Z" transform="translate(-2.27)"/><path class="cls-11" d="M343,591.75h-3.12V580.63q0-6.21-4.53-6.21a4.94,4.94,0,0,0-3.88,1.76,6.56,6.56,0,0,0-1.53,4.45v11.12h-3.12v-19.5h3.12v3.24H330a7,7,0,0,1,6.39-3.7,6,6,0,0,1,4.9,2.07,9.21,9.21,0,0,1,1.69,6Z" transform="translate(-2.27)"/></g></g></svg>